<svg xmlns="http://www.w3.org/2000/svg" id="Group_247" data-name="Group 247" viewBox="0 0 60.019 88.419">
    <defs>
        <style>
            .cls-1{fill:rgba(36,208,181,.6)}.cls-2{fill:rgba(36,208,181,.2)}.cls-3{fill:#24d0b5}
        </style>
    </defs>
    <path id="Path_293" d="M8.772 52.112l-2.4-3.156 13.571-3.976 1.262-.379.757-1.136 8.016-11.675 8.015 11.676.757 1.134 1.262.379 13.632 4.039-2.209 2.9 3.85 1.2 4.733-6.185-18.87-5.554L30.041 25.1 18.87 41.383 0 46.936l4.986 6.437c1.136-.373 2.398-.82 3.786-1.261z" class="cls-1" data-name="Path 293" transform="translate(0 -9.259)"/>
    <path id="Path_294" d="M8.772 27.012l-2.4-3.156 13.571-3.976 1.262-.379.757-1.136L29.978 6.69l8.015 11.676.757 1.134 1.262.379 13.632 3.976-2.209 2.9 3.85 1.2 4.733-6.185-18.87-5.55L30.041 0 18.87 16.22 0 21.773l4.986 6.437c1.136-.31 2.398-.757 3.786-1.198z" class="cls-2" data-name="Path 294"/>
    <path id="Path_295" d="M30.041 100.089l-18.555 6.627.5-19.691L0 71.436l18.87-5.554L30.041 49.6l11.107 16.283 18.87 5.554-11.991 15.588.5 19.691z" class="cls-3" data-name="Path 295" transform="translate(0 -18.297)"/>
</svg>
