<svg xmlns="http://www.w3.org/2000/svg" viewBox="0 0 55.528 95.308">
    <defs>
        <style>
            .cls-1{fill:#24d0b5}
        </style>
    </defs>
    <g id="Group_244" data-name="Group 244" transform="translate(.012 .018)">
        <path id="Path_285" d="M54.244 27.222C52.388 24.2 52.8 21.927 52.938 20c.138-1.994 1.306-6.05-3.713-8.044-3.025-1.444-4.607-2.613-6.188-5.363s-2.75-5.5-8.182-4.057c-5.294 1.375-6.532.688-8.113-.481S23.854-.349 22.685.063A11.135 11.135 0 0 0 17.8 3.5c-1.581 1.719-3.713 2.338-6.326 3.163S6.734 7.97 5.84 11.958c-.894 3.919-1.031 6.05-3.438 7.907C.065 21.721-.623 26.053.546 28.39a14.253 14.253 0 0 1 1.719 7.632c-.138 3.163-.138 6.188 2.613 7.769s4.95 2.75 6.394 5.363 3.85 5.775 8.182 5.019 5.294-.413 8.044.756 5.913 2.131 8.938-1.169 3.438-2.888 6.463-3.85c3.025-.894 6.188-1.719 6.876-6.6s1.581-5.363 3.3-7.219 3.851-4.125 1.169-8.869zM27.773 46.611a18.564 18.564 0 1 1 18.564-18.564 18.574 18.574 0 0 1-18.564 18.564z" class="cls-1" data-name="Path 285"/>
        <path id="Path_286" d="M12.613 81.6c-.413.275-5.913 35.478-5.913 35.478a55.309 55.309 0 0 0 12.032-4.538 4.842 4.842 0 0 1 5.5 1.1c2.406 2.131 6.394 5.707 7.082 6.257s1.994 2.544 2.681-2.131 4.675-32.109 4.675-32.109-3.85 2.819-6.944 2.544-3.644-2.819-6.05-2.956-5.5 1.444-7.632.825-5.431-4.47-5.431-4.47z" class="cls-1" data-name="Path 286" transform="translate(-2.097 -25.501)"/>
        <path id="Path_287" d="M66.7 77.59a22.873 22.873 0 0 0-5.225.963 3.705 3.705 0 0 0-2.544 3.647c0 1.1-2.131 17.67-2.131 17.67s12.307 4.4 13.27 4.675 1.444-.55.963-2.819C70.689 99.523 66.7 77.59 66.7 77.59z" class="cls-1" data-name="Path 287" transform="translate(-17.751 -24.242)"/>
    </g>
</svg>
