<svg xmlns="http://www.w3.org/2000/svg" viewBox="0 0 98.59 98.59">
    <defs>
        <style>
            .cls-1,.cls-2{fill:none;stroke:#24d0b5;stroke-miterlimit:10;stroke-width:3px}.cls-2{stroke-linecap:round;stroke-linejoin:round}.cls-3{fill:#24d0b5}
        </style>
    </defs>
    <g id="Group_416" data-name="Group 416" transform="translate(-373.505 -5687.505)">
        <g id="Group_338" data-name="Group 338" transform="translate(373.5 5687.5)">
            <path id="Path_261" d="M97.1 45.3A47.934 47.934 0 0 0 53.3 1.5" class="cls-1" data-name="Path 261"/>
            <path id="Path_262" d="M45.3 1.5A47.934 47.934 0 0 0 1.5 45.3" class="cls-1" data-name="Path 262"/>
            <path id="Path_263" d="M53.3 97.1a47.934 47.934 0 0 0 43.8-43.8" class="cls-1" data-name="Path 263"/>
            <path id="Path_264" d="M1.5 53.3a47.934 47.934 0 0 0 43.8 43.8" class="cls-1" data-name="Path 264"/>
        </g>
        <g id="Group_415" data-name="Group 415">
            <g id="Group_410" data-name="Group 410" transform="translate(407.028 5715.866)">
                <g id="Group_400" data-name="Group 400">
                    <path id="Path_428" d="M57.643 52.571a16.371 16.371 0 1 0-24.258 14.365v7.534h15.773v-7.534a16.345 16.345 0 0 0 8.485-14.365z" class="cls-2" data-name="Path 428" transform="translate(-24.9 -36.2)"/>
                    <path id="Path_429" d="M53.9 154.4a6.228 6.228 0 0 0 12.182 0" class="cls-2" data-name="Path 429" transform="translate(-43.69 -112.785)"/>
                    <path id="Path_430" d="M66.98 59.8h-8.57c-2.885 0-5.21 1.691-5.21 3.789s2.325 3.789 5.21 3.789h4.952c2.885 0 5.21 1.691 5.21 3.789s-2.325 3.789-5.21 3.789h-8.784" class="cls-2" data-name="Path 430" transform="translate(-44.638 -50.549)"/>
                    <path id="Line_46" d="M0 0v21.828" class="cls-2" data-name="Line 46" transform="translate(16.23 5.95)"/>
                </g>
            </g>
            <g id="Group_411" data-name="Group 411" transform="translate(400.788 5715.983)">
                <circle id="Ellipse_95" cx="1.426" cy="1.426" r="1.426" class="cls-3" data-name="Ellipse 95" transform="translate(41.36)"/>
                <circle id="Ellipse_97" cx="1.426" cy="1.426" r="1.426" class="cls-3" data-name="Ellipse 97"/>
            </g>
            <circle id="Ellipse_98" cx="1.426" cy="1.426" r="1.426" class="cls-3" data-name="Ellipse 98" transform="translate(420.754 5706)"/>
            <g id="Group_412" data-name="Group 412" transform="translate(400.788 5741.655)">
                <circle id="Ellipse_95-2" cx="1.426" cy="1.426" r="1.426" class="cls-3" data-name="Ellipse 95" transform="translate(41.36)"/>
                <circle id="Ellipse_97-2" cx="1.426" cy="1.426" r="1.426" class="cls-3" data-name="Ellipse 97"/>
            </g>
        </g>
    </g>
</svg>
