<svg xmlns="http://www.w3.org/2000/svg" viewBox="0 0 36.985 36.964">
    <defs>
        <style>
            .cls-1{fill:none;stroke:#52a3df;stroke-miterlimit:10}.cls-2{fill:#52a3df}
        </style>
    </defs>
    <g id="Group_65" data-name="Group 65" transform="translate(-.007 -.019)">
        <g id="Group_23" data-name="Group 23" transform="translate(.5 .5)">
            <g id="Group_21" data-name="Group 21">
                <path id="Path_32" d="M13.568.5A18.714 18.714 0 0 0 .5 15.279" class="cls-1" data-name="Path 32" transform="translate(-.5 -.5)"/>
                <path id="Path_33" d="M1.3 20.2a18.194 18.194 0 0 0 12.082 11.116" class="cls-1" data-name="Path 33" transform="translate(-.314 4.684)"/>
            </g>
            <g id="Group_22" data-name="Group 22" transform="translate(22.932)">
                <path id="Path_34" d="M32.168 15.279A18.522 18.522 0 0 0 19.1.5" class="cls-1" data-name="Path 34" transform="translate(-19.1 -.5)"/>
                <path id="Path_35" d="M19.1 31.316A18.489 18.489 0 0 0 31.182 20.2" class="cls-1" data-name="Path 35" transform="translate(-19.1 4.684)"/>
            </g>
        </g>
        <g id="Group_24" data-name="Group 24" transform="translate(12.336 10.1)">
            <path id="Path_36" d="M12.812 18.6a6.294 6.294 0 0 0-2.712 5.179" class="cls-1" data-name="Path 36" transform="translate(-10.1 -5.337)"/>
            <path id="Path_37" d="M23.385 8.1c-3.575.505-9.74 1.137-12.452 6.568-1.356 2.526-.616 5.179 1.11 7.705 2.589 1.516 7.027.505 8.63-1.011 4.932-4.674.986-10.358 2.712-13.263" class="cls-2" data-name="Path 37" transform="translate(-10.07 -8.1)"/>
        </g>
    </g>
</svg>
