<svg xmlns="http://www.w3.org/2000/svg" viewBox="0 0 198.1 27.8">
    <defs>
        <style>
            .cls-1{fill:#24d0b5}
        </style>
    </defs>
    <g id="Group_36" data-name="Group 36" transform="translate(.1)">
        <path id="Path_1" d="M167.5 4.5v21.6c0 1.4-.1 1.5-1.5 1.5h-2.3a.8.8 0 0 1-.9-.9V1.4c0-1.4.1-1.4 1.4-1.4h5.3a1.556 1.556 0 0 1 1.7 1.1c2.9 7.1 5.9 14.1 8.8 21.2.1.1.1.3.3.6a4.349 4.349 0 0 1 .4-.7l8.7-20.7C190 0 190 0 191.6 0h5.3c.9 0 1.1.2 1.1 1.1v25.3c0 1-.2 1.1-1.1 1.2h-2.3c-1.4 0-1.5-.1-1.5-1.5V4.4a.1.1 0 0 1-.1-.1 2.507 2.507 0 0 1-.4.7c-3 7.1-6.1 14.2-9.1 21.3a1.631 1.631 0 0 1-1.7 1.2h-3.1a1.7 1.7 0 0 1-1.7-1.1c-3-7.1-6-14.1-9-21.1-.1-.3-.3-.6-.4-.9 0 .1 0 .1-.1.1z" class="cls-1" data-name="Path 1"/>
        <path id="Path_2" d="M68.7 4.4v21.7c0 1.3-.1 1.5-1.5 1.5h-2.1c-.8 0-1.1-.3-1.1-1.1V1.4c0-1.3.1-1.4 1.5-1.4h4.8a2.006 2.006 0 0 1 1.8 1C77 8.1 82 15.3 86.9 22.5c.2.3.4.5.7 1V1.6c0-1.4.1-1.5 1.5-1.5h2.4c.6 0 .8.3.8.9v25.3c0 1.4-.1 1.5-1.5 1.5h-4.7a2.166 2.166 0 0 1-1.9-1c-4.9-7.2-9.9-14.3-14.8-21.5-.2-.3-.4-.5-.6-.8 0-.1 0-.1-.1-.1z" class="cls-1" data-name="Path 2"/>
        <path id="Path_3" d="M0 13.8V1.4C0 .1.1 0 1.4 0h17a12.718 12.718 0 0 1 3.9.6 6.992 6.992 0 0 1 4.9 6.8c.1 4.3.1 8.5 0 12.8a7.369 7.369 0 0 1-6.8 7.2 19.419 19.419 0 0 1-2.4.2H1.2c-1.1 0-1.3-.1-1.3-1.3.1-4.2.1-8.3.1-12.5zm5-9.7v19.3c.1 0 .1.1.2.1 4.3 0 8.6.1 12.8-.1 3.1-.1 4.3-1.7 4.4-4.7V9.1c0-3.1-1.5-4.7-4.6-4.9H6.9A12.75 12.75 0 0 0 5 4.1z" class="cls-1" data-name="Path 3"/>
        <path id="Path_4" d="M37.9 11.6h16.5c1.2 0 1.3.1 1.3 1.3v1.8c0 .7-.3.9-.9.9h-17v7.8h19.6c1.3 0 1.4.1 1.4 1.4v1.8a.8.8 0 0 1-.9.9H34.2c-1.3 0-1.4-.1-1.4-1.3v-25C32.9.1 33 0 34.2 0h23.4c1.2 0 1.3.1 1.3 1.3v1.8c0 .7-.3 1-1 1h-20v7.5z" class="cls-1" data-name="Path 4"/>
        <path id="Path_5" d="M103.6 4.1v7.5h16.5c1.2 0 1.3.1 1.3 1.3v1.8c0 .7-.3.9-.9.9h-17v7.8h19.6c1.3 0 1.4.1 1.4 1.4v1.8a.8.8 0 0 1-.9.9H99.9c-1.3 0-1.4-.1-1.4-1.3v-25c0-1.1.1-1.2 1.3-1.2h23.4c1.2 0 1.3.1 1.3 1.3v1.8c0 .7-.3 1-1 1h-19.9z" class="cls-1" data-name="Path 5"/>
        <path id="Path_6" d="M156.8 11.7V21a9.7 9.7 0 0 1-.1 1.7c-.5 3.2-2.3 4.8-5.7 4.9-5.2.1-10.3.1-15.5 0-2.3 0-4.4-.8-5.3-3.2a8.592 8.592 0 0 1-.5-3.2V1.3c0-1.1.2-1.2 1.2-1.2h2.7a.9.9 0 0 1 1 1v18.8c0 2.9.6 3.5 3.5 3.6h10.2c2.9 0 3.5-.7 3.5-3.6V1.4c0-1.4.1-1.4 1.4-1.4h2.3c1.1 0 1.2.2 1.2 1.2.1 3.5.1 7 .1 10.5z" class="cls-1" data-name="Path 6"/>
    </g>
</svg>
