<svg xmlns="http://www.w3.org/2000/svg" viewBox="0 0 63.69 58.105">
    <defs>
        <style>
            .cls-1{fill:none;stroke:#52a3df;stroke-miterlimit:10;stroke-width:2px}
        </style>
    </defs>
    <g id="token-head-slice_1_" transform="translate(1 1.052)">
        <g id="nuclear-icon_1_">
            <path id="Stroke-1_1_" d="M152.637 140.647c7.839 15.167 9.2 29.993 3.067 33.06s-17.382-6.646-25.051-21.813c-7.839-15.167-9.2-29.993-3.067-33.06 5.964-3.068 17.214 6.646 25.051 21.813z" class="cls-1" transform="translate(-110.715 -118.268)"/>
            <path id="Stroke-3_1_" d="M130.653 140.647c-7.839 15.167-9.2 29.993-3.067 33.06s17.382-6.646 25.051-21.813c7.839-15.167 9.2-29.993 3.067-33.06s-17.212 6.646-25.051 21.813z" class="cls-1" transform="translate(-110.715 -118.268)"/>
            <path id="Stroke-5_1_" d="M146.945 127.5c-17.041 0-30.845 5.453-30.845 12.27s13.8 12.27 30.845 12.27 30.845-5.453 30.845-12.27c0-6.646-13.803-12.27-30.845-12.27z" class="cls-1" transform="translate(-116.1 -111.768)"/>
            <path id="Stroke-7_1_" d="M139.5 136.349a3.749 3.749 0 1 1-3.749-3.749 3.782 3.782 0 0 1 3.749 3.749z" class="cls-1" transform="translate(-104.904 -108.176)"/>
        </g>
    </g>
</svg>
