<svg xmlns="http://www.w3.org/2000/svg" viewBox="0 0 122 111.076">
    <defs>
        <style>
            .cls-1{fill:none;stroke:#52a3df;stroke-miterlimit:10;stroke-width:2px}
        </style>
    </defs>
    <g id="token-head-slice_1_" transform="translate(-222.5 -3886.377)">
        <g id="nuclear-icon_1_" transform="translate(223.5 3887.47)">
            <path id="Stroke-1_1_" d="M70.792 43.966c15.134 29.555 17.8 58.22 6.053 64.273s-33.65-13-48.783-42.374-17.8-58.22-6.053-64.273 33.649 12.997 48.783 42.374z" class="cls-1" transform="translate(10.573 -.47)"/>
            <path id="Stroke-3_1_" d="M28.062 43.966c-15.134 29.555-17.8 58.22-6.053 64.273s33.65-13 48.783-42.374S88.6 7.645 76.845 1.592 43.2 14.589 28.062 43.966z" class="cls-1" transform="translate(10.573 -.47)"/>
            <path id="Stroke-5_1_" d="M60.5 17.6c-33.116 0-60 10.683-60 24.036 0 13.175 26.884 24.036 60 24.036s60-10.683 60-24.036c0-13.175-26.884-24.036-60-24.036z" class="cls-1" transform="translate(-.5 12.899)"/>
            <path id="Stroke-7_1_" d="M44.443 34.222a7.122 7.122 0 1 1-7.121-7.122 7.143 7.143 0 0 1 7.121 7.122z" class="cls-1" transform="translate(22.678 20.313)"/>
        </g>
    </g>
</svg>
