<svg xmlns="http://www.w3.org/2000/svg" id="Group_121" data-name="Group 121" viewBox="0 0 283.059 282.889">
    <defs>
        <style>
            .cls-1{fill:#c1272d}.cls-2{fill:#24d0b5}
        </style>
    </defs>
    <path id="Path_137" d="M61.425 167.317a130.3 130.3 0 0 1 24.71-74.983l-8.18-6.134A139.688 139.688 0 0 0 51.2 167.317z" class="cls-1" data-name="Path 137" transform="translate(-51.2 -27.407)"/>
    <path id="Path_138" d="M96.29 223.123A130.056 130.056 0 0 1 61.525 135.7H51.3a141.109 141.109 0 0 0 37.662 94.41z" class="cls-1" data-name="Path 138" transform="translate(-51.13 7.448)"/>
    <path id="Path_139" d="M281.554 180.7a112.978 112.978 0 0 1-12.611 14.485 131.242 131.242 0 0 1-185.752 0L82 193.992l-7.5 6.987 1.363 1.363a141.528 141.528 0 0 0 200.067 0 151.722 151.722 0 0 0 13.633-15.849z" class="cls-1" data-name="Path 139" transform="translate(-34.793 39.135)"/>
    <path id="Path_140" d="M264.645 193.244a131.036 131.036 0 0 1-23.858 75.494l8.35 5.965A141.372 141.372 0 0 0 135.3 51.8v10.225a130.634 130.634 0 0 1 129.345 131.219z" class="cls-1" data-name="Path 140" transform="translate(8.019 -51.63)"/>
    <path id="Path_141" d="M131.211 62.1c1.193 0 2.556-.17 3.749-.17V51.7a34.227 34.227 0 0 0-4.26.17z" class="cls-2" data-name="Path 141" transform="translate(4.78 -51.7)"/>
    <path id="Path_142" d="M112.167 67.919a124.948 124.948 0 0 1 30.845-5.794L142.5 51.9a137.791 137.791 0 0 0-33.4 6.305z" class="cls-2" data-name="Path 142" transform="translate(-10.43 -51.559)"/>
    <path id="Path_143" d="M76.28 110.662A125.5 125.5 0 0 1 88.039 97.2 132.327 132.327 0 0 1 137.8 66.014l-3.238-9.714a141.363 141.363 0 0 0-53.851 33.742A125.852 125.852 0 0 0 68.1 104.527z" class="cls-2" data-name="Path 143" transform="translate(-39.3 -48.461)"/>
</svg>
